<svg width="714" height="198" viewBox="0 0 714 198" fill="none" xmlns="http://www.w3.org/2000/svg">
<g clip-path="url(#clip0_275_117)">
<path d="M689.355 149.694C702.672 149.694 713.326 160.639 713.326 173.956C713.326 187.273 702.672 197.927 689.355 197.927C676.038 197.927 665.385 187.273 665.385 173.956C665.385 160.639 676.038 149.694 689.355 149.694Z" fill="#1E1E1E"/>
<path d="M612.522 0.845703V10.3133C630.281 11.1976 643.89 27.1781 628.794 78.9689L609.858 144.67L566.942 0.845703H539.122L495.623 146.438L464.547 41.3795C459.22 23.6199 463.954 11.4889 481.12 10.3029V0.845703H216.704V10.3133C234.463 11.1976 248.072 27.1781 232.976 78.9689L214.04 144.67L171.145 0.845703H143.325L99.8259 146.438L68.7494 41.3795C63.4225 23.6199 68.1563 11.4889 85.3228 10.3029V0.845703H0.09375V10.3133C14.5968 11.7906 24.0644 27.1781 28.2052 41.3899L74.6692 197.938H103.082L146.29 53.2295L188.904 197.938H216.725L260.224 49.3801C263.782 37.093 268.401 27.022 274.217 20.1554C281.011 12.1548 292.257 9.20007 302.099 12.8414C308.924 15.3696 312.004 20.1034 312.004 29.8415V168.932C312.004 183.726 304.898 186.983 288.325 188.46V197.928H445.466V123.945H435.998C431.264 162.117 411.736 183.133 373.262 183.133C365.563 183.133 358.468 183.133 351.071 181.656V29.8519C351.071 15.8482 357.438 12.186 372.17 10.5734C373.731 10.4069 375.312 10.3237 376.883 10.3237H382.449C401.499 10.3237 418.447 22.7148 423.898 40.9737C423.94 41.1194 423.982 41.2546 424.023 41.4003L470.487 197.948H498.9L542.108 53.2399L584.722 197.948H612.543L656.041 49.3905C662.554 26.8972 672.615 11.8115 687.118 10.3237V0.845703H612.543H612.522Z" fill="#1E1E1E"/>
</g>
<defs>
<clipPath id="clip0_275_117">
<rect width="713.221" height="197.092" fill="white" transform="translate(0.09375 0.845703)"/>
</clipPath>
</defs>
</svg>
