<svg width="686" height="261" viewBox="0 0 686 261" fill="none" xmlns="http://www.w3.org/2000/svg">
<g clip-path="url(#clip0_275_123)">
<path d="M662.86 143.075C675.66 143.075 685.9 153.595 685.9 166.395C685.9 179.195 675.66 189.435 662.86 189.435C650.06 189.435 639.82 179.195 639.82 166.395C639.82 153.595 650.06 143.075 662.86 143.075Z" fill="#1E1E1E"/>
<path d="M589.009 0.00488281V9.10488C606.079 9.95488 619.159 25.3149 604.649 75.0949L586.449 138.245L545.199 0.00488281H518.459L476.649 139.945L446.779 38.9649C441.659 21.8949 446.209 10.2349 462.709 9.09488V0.00488281H208.559V9.10488C225.629 9.95488 238.709 25.3149 224.199 75.0949L205.999 138.245L164.769 0.00488281H138.029L96.2194 139.945L66.3494 38.9649C61.2294 21.8949 65.7794 10.2349 82.2794 9.09488V0.00488281H0.359375V9.10488C14.2994 10.5249 23.3994 25.3149 27.3794 38.9749L72.0394 189.445H99.3494L140.879 50.3549L181.839 189.445H208.579L250.389 46.6549C253.809 34.8449 258.249 25.1649 263.839 18.5649C270.369 10.8749 281.179 8.03488 290.639 11.5349C297.199 13.9649 300.159 18.5149 300.159 27.8749V161.565C300.159 175.785 293.329 178.915 277.399 180.335V189.435H428.439V118.325H419.339C414.789 155.015 396.019 175.215 359.039 175.215C351.639 175.215 344.819 175.215 337.709 173.795V27.8849C337.709 14.4249 343.829 10.9049 357.989 9.35488C359.489 9.19488 361.009 9.11488 362.519 9.11488H367.869C386.179 9.11488 402.469 21.0249 407.709 38.5749C407.749 38.7149 407.789 38.8449 407.829 38.9849L452.489 189.455H479.799L521.329 50.3649L562.289 189.455H589.029L630.839 46.6649C637.099 25.0449 646.769 10.5449 660.709 9.11488V0.00488281H589.029H589.009Z" fill="#1E1E1E"/>
</g>
<path d="M204.139 225.046L209.946 244.936L212.543 235.791C214.476 228.954 212.832 226.817 210.193 226.57V225.046H220.606V226.57C218.673 226.774 217.234 229.082 216.451 231.883L210.525 252.472H205.791L200.026 232.581L194.262 252.472H189.442L183.184 231.023C182.562 228.801 181.251 226.783 179.318 226.579V225.054H191.546V226.579C189.366 226.74 188.744 228.307 189.442 230.691L193.598 245.064L199.447 225.054H204.139V225.046Z" fill="#1E1E1E"/>
<path d="M222.83 247.244V228.801C222.83 225.838 222.464 225.14 220.403 224.722V223.403H228.475V235.178C230.118 233.45 232.554 232.173 235.185 232.173C238.974 232.173 241.196 234.233 241.196 238.968V247.244C241.196 250.045 241.571 250.743 243.623 251.152V252.472H233.124V251.152C235.185 250.743 235.551 250.037 235.551 247.244V239.053C235.551 236.541 234.682 235.434 232.588 235.434C230.859 235.434 229.378 236.583 228.466 237.741V247.252C228.466 250.054 228.841 250.752 230.893 251.161V252.48H220.395V251.161C222.455 250.752 222.821 250.045 222.821 247.252L222.83 247.244Z" fill="#1E1E1E"/>
<path d="M257.322 240.858V238.261C257.322 235.34 256.42 234.106 254.112 234.106C252.545 234.106 251.515 234.685 251.515 235.715C251.515 236.336 252.052 236.703 252.052 237.605C252.052 238.84 250.936 240.202 248.927 240.202C246.789 240.202 245.921 238.559 245.921 237.154C245.921 234.599 248.39 232.173 254.402 232.173C259.051 232.173 262.967 233.246 262.967 239.3V247.985C262.967 249.381 263.419 250.088 264.577 250.088C264.909 250.088 265.232 250.045 265.65 249.926L266.058 251.203C264.619 252.276 263.053 252.889 261.12 252.889C259.187 252.889 258.029 252.021 257.62 250.088C256.471 251.612 254.248 252.889 251.234 252.889C247.615 252.889 244.771 251.246 244.771 247.576C244.771 243.336 249.054 241.232 257.331 240.866L257.322 240.858ZM250.86 247.074C250.86 249.211 252.009 250.207 253.703 250.207C255.398 250.207 256.667 249.134 257.331 247.857V242.714C252.597 242.671 250.868 244.4 250.868 247.074H250.86Z" fill="#1E1E1E"/>
<path d="M272.392 226.119H274.036V232.624H279.145V234.804H274.036V247.116C274.036 249.219 274.904 249.96 276.386 249.96C277.331 249.96 278.319 249.466 279.017 248.683L280.09 249.917C278.727 251.561 276.548 252.923 273.704 252.923C270.042 252.923 268.39 250.82 268.39 247.116V234.804H265.385V233.365C269.004 232.377 271.311 229.865 272.384 226.119H272.392Z" fill="#1E1E1E"/>
<path d="M297.632 229.286L297.589 250.079C298.704 250.284 299.726 250.284 300.842 250.284C305.491 250.284 308.462 247.653 309.033 242.05H310.6V252.463H288.41V250.939C290.547 250.735 291.535 250.284 291.535 248.223V229.286C291.535 227.226 290.547 226.774 288.41 226.57V225.046H300.765V226.57C298.628 226.774 297.632 227.226 297.632 229.286Z" fill="#1E1E1E"/>
<path d="M325.168 240.858V238.261C325.168 235.34 324.265 234.106 321.958 234.106C320.391 234.106 319.361 234.685 319.361 235.715C319.361 236.336 319.897 236.703 319.897 237.605C319.897 238.84 318.782 240.202 316.772 240.202C314.635 240.202 313.767 238.559 313.767 237.154C313.767 234.599 316.236 232.173 322.247 232.173C326.896 232.173 330.813 233.246 330.813 239.3V247.985C330.813 249.381 331.264 250.088 332.422 250.088C332.755 250.088 333.078 250.045 333.495 249.926L333.904 251.203C332.465 252.276 330.898 252.889 328.965 252.889C327.033 252.889 325.875 252.021 325.466 250.088C324.316 251.612 322.094 252.889 319.08 252.889C315.461 252.889 312.617 251.246 312.617 247.576C312.617 243.336 316.9 241.232 325.176 240.866L325.168 240.858ZM318.705 247.074C318.705 249.211 319.855 250.207 321.549 250.207C323.244 250.207 324.512 249.134 325.176 247.857V242.714C320.442 242.671 318.714 244.4 318.714 247.074H318.705Z" fill="#1E1E1E"/>
<path d="M344.641 232.173C346.003 232.173 347.238 232.335 348.302 232.624H354.969V234.804H352.006C352.909 235.834 353.403 237.154 353.403 238.669C353.403 242.748 349.988 245.175 344.633 245.175C342.819 245.175 341.218 244.885 339.898 244.391C339.566 244.681 339.405 245.047 339.405 245.507C339.405 246.903 340.767 247.525 345.663 248.061C351.921 248.759 354.969 250.411 354.969 254.447C354.969 259.556 349.614 260.995 344.675 260.995C339.158 260.995 334.381 259.633 334.381 255.852C334.381 253.545 336.067 252.106 337.88 251.74C335.905 250.914 335.036 249.679 335.036 247.789C335.036 245.898 336.229 244.417 338.579 243.71C336.808 242.595 335.82 240.866 335.82 238.686C335.82 234.608 339.234 232.181 344.633 232.181L344.641 232.173ZM344.888 258.935C348.677 258.935 350.244 258.032 350.244 256.133C350.244 254.447 349.052 253.749 344.147 253.127C342.257 252.881 340.733 252.634 339.456 252.302C338.877 252.881 338.425 253.868 338.425 254.899C338.425 257.121 340.486 258.935 344.888 258.935ZM344.641 243.25C346.659 243.25 347.851 241.811 347.851 238.678C347.851 235.545 346.659 234.106 344.641 234.106C342.623 234.106 341.346 235.502 341.346 238.678C341.346 241.854 342.581 243.25 344.641 243.25Z" fill="#1E1E1E"/>
<path d="M377.908 242.552C377.908 248.811 373.829 252.932 367.12 252.932C360.41 252.932 356.289 248.811 356.289 242.552C356.289 236.294 360.368 232.173 367.12 232.173C373.872 232.173 377.908 236.285 377.908 242.552ZM367.12 250.99C370.287 250.99 371.811 248.232 371.811 242.552C371.811 236.873 370.287 234.114 367.12 234.114C363.952 234.114 362.386 236.873 362.386 242.552C362.386 248.232 363.91 250.99 367.12 250.99Z" fill="#1E1E1E"/>
<path d="M389.02 232.173C391.617 232.173 394.452 232.794 396.104 233.944V239.257H394.827C394.086 236.413 392.068 234.072 388.858 234.072C386.925 234.072 385.69 234.855 385.69 236.336C385.69 238.269 387.828 238.933 390.305 239.632C393.601 240.662 397.39 241.854 397.39 246.341C397.39 250.377 393.805 252.932 388.662 252.932C384.132 252.932 381.288 251.654 380.02 250.871V244.86H381.339C381.952 247.823 385.205 251.033 388.917 251.033C391.055 251.033 392.213 249.96 392.213 248.359C392.213 246.222 389.863 245.481 387.317 244.613C384.107 243.497 380.522 242.263 380.522 238.107C380.522 235.638 382.293 232.181 389.045 232.181L389.02 232.173Z" fill="#1E1E1E"/>
<path d="M430.52 225.046L436.327 244.936L438.924 235.791C440.857 228.954 439.213 226.817 436.574 226.57V225.046H446.987V226.57C445.054 226.774 443.615 229.082 442.832 231.883L436.906 252.472H432.172L426.407 232.581L420.643 252.472H415.823L409.565 231.023C408.943 228.801 407.632 226.783 405.699 226.579V225.054H417.926V226.579C415.747 226.74 415.125 228.307 415.823 230.691L419.978 245.064L425.828 225.054H430.52V225.046Z" fill="#1E1E1E"/>
<path d="M466.377 242.552C466.377 248.811 462.298 252.932 455.589 252.932C448.879 252.932 444.758 248.811 444.758 242.552C444.758 236.294 448.836 232.173 455.589 232.173C462.341 232.173 466.377 236.285 466.377 242.552ZM455.589 250.99C458.756 250.99 460.28 248.232 460.28 242.552C460.28 236.873 458.756 234.114 455.589 234.114C452.421 234.114 450.854 236.873 450.854 242.552C450.854 248.232 452.378 250.99 455.589 250.99Z" fill="#1E1E1E"/>
<path d="M482.103 232.173C484.53 232.173 485.645 233.859 485.645 235.877C485.645 237.767 484.53 239.214 482.801 239.214C481.277 239.214 480.698 238.388 480.289 237.571C480 236.873 479.71 236.209 478.68 236.209C477.777 236.209 476.951 236.83 476.211 238.142V247.244C476.211 250.045 476.619 250.743 478.927 251.152V252.472H468.139V251.152C470.199 250.743 470.565 250.037 470.565 247.244V238.022C470.565 235.059 470.199 234.361 468.139 233.944V232.624H476.211L476.083 235.834C477.36 234.02 479.829 232.173 482.094 232.173H482.103Z" fill="#1E1E1E"/>
<path d="M505.322 247.738L506.514 249.057C505.279 250.582 502.52 252.932 497.539 252.932C490.413 252.932 486.547 248.564 486.547 242.68C486.547 237.12 490.413 232.181 497.088 232.181C503.1 232.181 506.931 235.723 506.931 242.561H492.643C492.848 247.627 495.564 249.934 499.481 249.934C502.401 249.934 504.13 248.862 505.33 247.755L505.322 247.738ZM500.749 240.33C500.749 237.529 500.622 234.114 497.088 234.114C493.921 234.114 492.933 237.035 492.686 240.33H500.758H500.749Z" fill="#1E1E1E"/>
<defs>
<clipPath id="clip0_275_123">
<rect width="685.53" height="189.44" fill="white" transform="translate(0.359375 0.00488281)"/>
</clipPath>
</defs>
</svg>
